<svg width="50" height="50" viewBox="0 0 50 50" fill="none" xmlns="http://www.w3.org/2000/svg">
<path d="M47.25 19.8435V27.8435" stroke="#00AEEF" stroke-width="3" stroke-linecap="round"/>
<path d="M23.203 14.3569L2.96159 20.1402C2.76527 20.1963 2.76929 20.4759 2.96713 20.5263L27.6892 26.828C27.7288 26.8381 27.7705 26.8358 27.8088 26.8215L47.0989 19.5877C47.2869 19.5172 47.2654 19.2446 47.0686 19.2045L23.2979 14.3533C23.2664 14.3469 23.2339 14.3481 23.203 14.3569Z" stroke="black" stroke-width="3" stroke-linecap="round"/>
<path d="M11.75 24.8435V32.2218C11.75 32.2966 11.7886 32.3636 11.8552 32.3975C16.7387 34.885 28.537 38.2777 37.6584 32.4028C37.7153 32.3662 37.75 32.3028 37.75 32.2352V26.8435" stroke="black" stroke-width="3" stroke-linecap="round"/>
<path d="M20.25 19.8435L27.75 21.8435" stroke="#00AEEF" stroke-width="3" stroke-linecap="round"/>
</svg>
