<svg width="50" height="50" viewBox="0 0 50 50" fill="none" xmlns="http://www.w3.org/2000/svg">
<path d="M17.5 36L19.4505 33.5618C19.4823 33.5221 19.528 33.496 19.5784 33.4888L22.8348 33.0236C22.9304 33.0099 23.0222 33.0667 23.0528 33.1583L23.9825 35.9474C23.9939 35.9818 24.0145 36.0125 24.0421 36.0361L27.5 39" stroke="#00AEEF" stroke-width="3" stroke-linecap="round"/>
<circle cx="25" cy="25" r="14.5" stroke="black" stroke-width="3"/>
<path d="M11.5 22H14.9276C14.9744 22 15.0197 22.0164 15.0556 22.0464L17.872 24.3933C17.9461 24.4551 18.0539 24.4551 18.128 24.3933L20.928 22.06C20.9736 22.022 21 21.9657 21 21.9063V16.5828C21 16.5298 20.9789 16.4789 20.9414 16.4414L17.5 13" stroke="black" stroke-width="3" stroke-linecap="round"/>
<path d="M11.5 22H14.9276C14.9744 22 15.0197 22.0164 15.0556 22.0464L17.872 24.3933C17.9461 24.4551 18.0539 24.4551 18.128 24.3933L20.928 22.06C20.9736 22.022 21 21.9657 21 21.9063V16.5828C21 16.5298 20.9789 16.4789 20.9414 16.4414L17.5 13" stroke="black" stroke-width="3" stroke-linecap="round"/>
<path d="M33.5002 34.9999L31.0161 27.9005C31.006 27.8717 31.0026 27.8409 31.0063 27.8105L31.4037 24.5122C31.4152 24.4163 31.4938 24.3423 31.5903 24.3365L34.525 24.1604C34.5611 24.1582 34.596 24.1462 34.626 24.1257L38.3839 21.5528" stroke="black" stroke-width="3" stroke-linecap="round"/>
<path d="M35 27.5C34.3333 21.8333 30 12.2 18 19" stroke="#4DC6F4" stroke-width="3" stroke-linecap="round"/>
</svg>
