<svg width="163" height="86" viewBox="0 0 163 86" fill="none" xmlns="http://www.w3.org/2000/svg">
<path d="M25.565 17.592C25.565 20.184 24.893 22.456 23.549 24.408H23.597L13.133 40.2H5.549L13.037 29.256C9.549 29.192 6.701 28.088 4.493 25.944C2.317 23.768 1.229 20.984 1.229 17.592C1.229 14.168 2.349 11.368 4.589 9.19201C6.861 7.01601 9.789 5.92801 13.373 5.92801C16.989 5.92801 19.917 7.01601 22.157 9.19201C24.429 11.336 25.565 14.136 25.565 17.592ZM7.805 17.592C7.805 19.256 8.333 20.584 9.389 21.576C10.477 22.568 11.805 23.064 13.373 23.064C15.005 23.064 16.349 22.568 17.405 21.576C18.461 20.584 18.989 19.256 18.989 17.592C18.989 15.928 18.461 14.616 17.405 13.656C16.349 12.664 15.005 12.168 13.373 12.168C11.805 12.168 10.477 12.664 9.389 13.656C8.333 14.648 7.805 15.96 7.805 17.592ZM30.9451 33.576L27.3451 46.92H22.3051L24.2251 33.576H30.9451ZM50.2565 20.232C52.5285 20.904 54.3685 22.088 55.7765 23.784C57.2165 25.448 57.9365 27.464 57.9365 29.832C57.9365 33.288 56.7685 35.992 54.4325 37.944C52.1285 39.896 49.2965 40.872 45.9365 40.872C43.3125 40.872 40.9605 40.28 38.8805 39.096C36.8325 37.88 35.3445 36.104 34.4165 33.768L40.0805 30.504C40.9125 33.096 42.8645 34.392 45.9365 34.392C47.6325 34.392 48.9445 33.992 49.8725 33.192C50.8325 32.36 51.3125 31.24 51.3125 29.832C51.3125 28.456 50.8325 27.352 49.8725 26.52C48.9445 25.688 47.6325 25.272 45.9365 25.272H44.4965L41.9525 21.432L48.5765 12.792H35.4245V6.60001H56.5445V12.072L50.2565 20.232ZM67.1413 6.60001H72.9013V40.2H66.2773V13.608L59.9413 15.384L58.3093 9.72001L67.1413 6.60001ZM76.9678 6.60001H98.6638V12.216L87.2878 40.2H80.2798L91.3198 12.936H76.9678V6.60001Z" fill="black"/>
<path d="M126.207 49.4509C125.451 49.4509 124.748 49.2079 124.127 48.7758C124.046 48.7218 123.992 48.6678 123.938 48.6138C123.884 48.5868 123.857 48.5328 123.83 48.5058C123.722 48.4248 123.668 48.3438 123.587 48.2627C123.533 48.2087 123.506 48.1547 123.452 48.1007L123.425 48.0737C123.371 48.0197 123.344 47.9657 123.317 47.9117L123.263 47.8307C123.155 47.6687 123.074 47.5066 122.993 47.3446C122.966 47.2636 122.939 47.1826 122.912 47.1016C122.885 47.0206 122.858 46.9125 122.831 46.8315C122.804 46.7235 122.777 46.5885 122.75 46.4535C122.75 46.3995 122.723 46.3185 122.723 46.2644C122.723 46.1564 122.696 46.0484 122.696 45.9404C122.696 45.7514 122.723 45.5623 122.75 45.3463L124.829 33.2485L116.053 24.6882C115.891 24.5262 115.729 24.3372 115.594 24.1481C115.432 23.9051 115.324 23.7161 115.243 23.5C115.216 23.419 115.162 23.311 115.135 23.176C115.054 22.8519 115 22.5279 115 22.1768C115 22.0688 115 21.9878 115 21.8798C115 21.7178 115.027 21.5557 115.081 21.3937C115.081 21.3667 115.108 21.3127 115.108 21.2857C115.135 21.2047 115.135 21.1237 115.162 21.0427C115.162 21.0157 115.189 20.9616 115.216 20.8806C115.243 20.7996 115.27 20.7186 115.324 20.6376C115.405 20.4756 115.486 20.3136 115.621 20.1245C115.675 20.0165 115.756 19.9355 115.837 19.8545C115.837 19.8545 115.837 19.8275 115.864 19.8275L116.296 19.1254H116.674C116.728 19.0984 116.755 19.0714 116.809 19.0444C116.863 19.0174 116.971 18.9634 117.052 18.9093C117.16 18.8553 117.295 18.8013 117.457 18.7473C117.511 18.7203 117.592 18.6933 117.673 18.6933C117.781 18.6663 117.889 18.6393 118.024 18.6123L130.176 16.857L135.523 5.92039C136.117 4.70521 137.332 3.9491 138.683 3.9491C139.655 3.9491 140.6 4.35416 141.275 5.05626C141.383 5.19128 141.491 5.2993 141.572 5.43432C141.68 5.59634 141.788 5.75837 141.869 5.92039L147.297 16.884L159.422 18.6393C160.772 18.8283 161.879 19.7735 162.284 21.0697C162.311 21.1507 162.338 21.2047 162.338 21.2857C162.338 21.3127 162.338 21.3127 162.365 21.3397C162.392 21.4207 162.419 21.5017 162.419 21.6097C162.419 21.6368 162.419 21.6368 162.419 21.6638C162.446 21.7718 162.446 21.8528 162.446 21.9608C162.473 22.4739 162.392 23.014 162.176 23.5C162.095 23.7161 161.987 23.9051 161.852 24.0941L161.825 24.1211C161.69 24.3102 161.528 24.4992 161.366 24.6612L152.59 33.2215L154.669 45.2923C154.885 46.6155 154.372 47.9387 153.265 48.7488C152.995 48.9378 152.671 49.1269 152.347 49.2349C152.32 49.2349 152.293 49.2619 152.239 49.2619C151.888 49.3699 151.536 49.4239 151.185 49.4239C150.618 49.4239 150.051 49.2889 149.538 49.0189L138.683 43.321L127.827 49.0189C127.341 49.3159 126.774 49.4509 126.207 49.4509Z" fill="#FFE7C8"/>
<path d="M138.684 5.67712V28.0095L131.23 18.477L137.063 6.67628C137.414 6.02818 138.062 5.67712 138.684 5.67712Z" fill="#FFFAF6"/>
<path d="M160.636 21.6369L138.709 28.0098L146.162 18.4774L159.178 20.3677C159.907 20.5027 160.42 21.0158 160.636 21.6369Z" fill="#FEE0AC"/>
<path d="M152.24 47.3715L138.684 28.0096L150.727 32.6273L152.942 45.5893C153.104 46.3454 152.78 46.9935 152.24 47.3715Z" fill="#FFC167"/>
<path d="M138.683 28.0096V41.3767L127.044 47.5066C126.369 47.8576 125.667 47.7496 125.127 47.3715L138.683 28.0096Z" fill="#F9BB6D"/>
<path d="M146.137 18.477L138.684 28.0095V5.67712C139.17 5.67712 139.656 5.86615 140.007 6.24421C140.061 6.29822 140.115 6.37923 140.169 6.46024C140.223 6.54125 140.277 6.62227 140.304 6.70328L146.137 18.477Z" fill="#FFE9BA"/>
<path d="M160.582 22.8521C160.528 22.9601 160.474 23.0681 160.42 23.1762C160.339 23.2842 160.258 23.3652 160.177 23.4732L150.753 32.6546L138.709 28.0369L160.636 21.6639C160.636 21.6909 160.663 21.7179 160.663 21.745C160.663 21.772 160.69 21.799 160.69 21.853C160.69 21.88 160.69 21.88 160.69 21.88C160.69 21.907 160.69 21.934 160.69 21.961C160.69 22.015 160.69 22.042 160.69 22.096C160.717 22.339 160.69 22.6091 160.582 22.8521Z" fill="#FAB865"/>
<path d="M152.24 47.3715C152.105 47.4796 151.943 47.5606 151.754 47.6146C151.727 47.6146 151.727 47.6146 151.7 47.6416C151.267 47.7766 150.781 47.7496 150.322 47.5066L138.684 41.3766V28.0096L152.24 47.3715Z" fill="#F0A652"/>
<path d="M138.682 28.0096L125.126 47.3715C125.099 47.3445 125.072 47.3175 125.045 47.2905C125.018 47.2635 124.991 47.2365 124.964 47.2095C124.937 47.1825 124.91 47.1555 124.856 47.1015C124.829 47.0745 124.802 47.0475 124.775 47.0205C124.748 46.9935 124.748 46.9935 124.748 46.9665C124.721 46.9395 124.694 46.9125 124.694 46.8855C124.64 46.8045 124.586 46.7235 124.559 46.6424C124.532 46.6154 124.532 46.5614 124.505 46.5074C124.478 46.4534 124.478 46.4264 124.451 46.3724C124.424 46.3184 124.424 46.2374 124.424 46.1834C124.424 46.1564 124.424 46.1024 124.424 46.0754C124.424 46.0213 124.424 45.9673 124.424 45.9133C124.424 45.8053 124.424 45.6973 124.451 45.5893L126.665 32.6273L138.682 28.0096Z" fill="#FED891"/>
<path d="M138.683 28.0097L116.756 21.6367C116.756 21.6097 116.783 21.5827 116.783 21.5557C116.81 21.5017 116.81 21.4477 116.837 21.4207C116.891 21.3127 116.945 21.2317 116.999 21.1507C117.026 21.0967 117.053 21.0697 117.107 21.0156C117.134 20.9886 117.161 20.9346 117.215 20.9076C117.242 20.8806 117.296 20.8266 117.323 20.7996C117.35 20.7726 117.404 20.7456 117.431 20.7186C117.485 20.6916 117.539 20.6376 117.593 20.6106C117.62 20.5836 117.674 20.5566 117.728 20.5566C117.809 20.5296 117.863 20.5026 117.944 20.4756C117.971 20.4756 117.998 20.4486 118.052 20.4486C118.106 20.4216 118.187 20.4216 118.268 20.3946L131.284 18.5043L138.683 28.0097Z" fill="#FFF3D9"/>
<path d="M116.783 21.556C116.783 21.5831 116.756 21.6103 116.756 21.6374C116.783 21.6103 116.783 21.5831 116.783 21.556Z" fill="url(#paint0_linear_3797_25628)"/>
<path d="M138.682 28.0097L126.666 32.6544L117.241 23.473C117.133 23.392 117.079 23.284 116.998 23.176C116.944 23.068 116.863 22.9599 116.836 22.8519C116.809 22.7979 116.782 22.7439 116.782 22.6899C116.728 22.5279 116.701 22.3388 116.701 22.1768C116.701 22.1228 116.701 22.0688 116.701 22.0148C116.701 21.9338 116.701 21.8798 116.728 21.7988C116.728 21.7718 116.755 21.7448 116.755 21.6908C116.755 21.6637 116.782 21.6367 116.782 21.6097L138.682 28.0097Z" fill="#FFC167"/>
<path d="M116.756 21.6366C116.756 21.6637 116.729 21.6908 116.729 21.7179C116.756 21.6908 116.756 21.6637 116.756 21.6366Z" fill="url(#paint1_linear_3797_25628)"/>
<path d="M116.998 23.176C116.917 23.068 116.863 22.9599 116.836 22.8519C116.863 22.9599 116.917 23.068 116.998 23.176Z" fill="url(#paint2_linear_3797_25628)"/>
<path d="M25.5531 77.2L23.0411 72.912H20.4011V77.2H18.9131V66H23.3931C24.3531 66 25.1744 66.3413 25.8571 67.024C26.5398 67.696 26.8811 68.512 26.8811 69.472C26.8811 70.1973 26.6624 70.8587 26.2251 71.456C25.7984 72.0533 25.2438 72.4747 24.5611 72.72L27.2011 77.2H25.5531ZM20.4011 67.392V71.568H23.3931C23.9478 71.568 24.4171 71.3653 24.8011 70.96C25.1958 70.544 25.3931 70.048 25.3931 69.472C25.3931 68.896 25.1958 68.4053 24.8011 68C24.4171 67.5947 23.9478 67.392 23.3931 67.392H20.4011ZM29.2801 73.84C29.4188 74.5547 29.7441 75.1093 30.2561 75.504C30.7788 75.8987 31.4188 76.096 32.1761 76.096C33.2321 76.096 34.0001 75.7067 34.4801 74.928L35.6641 75.6C34.8854 76.8053 33.7121 77.408 32.1441 77.408C30.8748 77.408 29.8401 77.0133 29.0401 76.224C28.2508 75.424 27.8561 74.416 27.8561 73.2C27.8561 71.9947 28.2454 70.992 29.0241 70.192C29.8028 69.392 30.8108 68.992 32.0481 68.992C33.2214 68.992 34.1761 69.408 34.9121 70.24C35.6588 71.0613 36.0321 72.0533 36.0321 73.216C36.0321 73.4187 36.0161 73.6267 35.9841 73.84H29.2801ZM32.0481 70.304C31.3014 70.304 30.6828 70.5173 30.1921 70.944C29.7014 71.36 29.3974 71.92 29.2801 72.624H34.6241C34.5068 71.8667 34.2081 71.2907 33.7281 70.896C33.2481 70.5013 32.6881 70.304 32.0481 70.304ZM44.4006 69.2H45.7926V77.2H44.4006V75.824C43.7073 76.88 42.6993 77.408 41.3766 77.408C40.2566 77.408 39.3019 77.0027 38.5126 76.192C37.7233 75.3707 37.3286 74.3733 37.3286 73.2C37.3286 72.0267 37.7233 71.0347 38.5126 70.224C39.3019 69.4027 40.2566 68.992 41.3766 68.992C42.6993 68.992 43.7073 69.52 44.4006 70.576V69.2ZM41.5526 76.064C42.3633 76.064 43.0406 75.792 43.5846 75.248C44.1286 74.6933 44.4006 74.0107 44.4006 73.2C44.4006 72.3893 44.1286 71.712 43.5846 71.168C43.0406 70.6133 42.3633 70.336 41.5526 70.336C40.7526 70.336 40.0806 70.6133 39.5366 71.168C38.9926 71.712 38.7206 72.3893 38.7206 73.2C38.7206 74.0107 38.9926 74.6933 39.5366 75.248C40.0806 75.792 40.7526 76.064 41.5526 76.064ZM54.6856 66H56.0776V77.2H54.6856V75.824C53.9923 76.88 52.9843 77.408 51.6616 77.408C50.5416 77.408 49.5869 77.0027 48.7976 76.192C48.0083 75.3707 47.6136 74.3733 47.6136 73.2C47.6136 72.0267 48.0083 71.0347 48.7976 70.224C49.5869 69.4027 50.5416 68.992 51.6616 68.992C52.9843 68.992 53.9923 69.52 54.6856 70.576V66ZM51.8376 76.064C52.6483 76.064 53.3256 75.792 53.8696 75.248C54.4136 74.6933 54.6856 74.0107 54.6856 73.2C54.6856 72.3893 54.4136 71.712 53.8696 71.168C53.3256 70.6133 52.6483 70.336 51.8376 70.336C51.0376 70.336 50.3656 70.6133 49.8216 71.168C49.2776 71.712 49.0056 72.3893 49.0056 73.2C49.0056 74.0107 49.2776 74.6933 49.8216 75.248C50.3656 75.792 51.0376 76.064 51.8376 76.064ZM69.2586 76.192C68.4373 77.0027 67.4399 77.408 66.2666 77.408C65.0933 77.408 64.0959 77.0027 63.2746 76.192C62.4639 75.3813 62.0586 74.384 62.0586 73.2C62.0586 72.016 62.4639 71.0187 63.2746 70.208C64.0959 69.3973 65.0933 68.992 66.2666 68.992C67.4399 68.992 68.4373 69.3973 69.2586 70.208C70.0799 71.0187 70.4906 72.016 70.4906 73.2C70.4906 74.384 70.0799 75.3813 69.2586 76.192ZM66.2666 76.048C67.0666 76.048 67.7386 75.776 68.2826 75.232C68.8266 74.688 69.0986 74.0107 69.0986 73.2C69.0986 72.3893 68.8266 71.712 68.2826 71.168C67.7386 70.624 67.0666 70.352 66.2666 70.352C65.4773 70.352 64.8106 70.624 64.2666 71.168C63.7226 71.712 63.4506 72.3893 63.4506 73.2C63.4506 74.0107 63.7226 74.688 64.2666 75.232C64.8106 75.776 65.4773 76.048 66.2666 76.048ZM77.8116 69.2H79.2036V77.2H77.8116V76.048C77.2463 76.9547 76.3823 77.408 75.2196 77.408C74.2809 77.408 73.5289 77.1147 72.9636 76.528C72.3983 75.9307 72.1156 75.1253 72.1156 74.112V69.2H73.5076V74.032C73.5076 74.6827 73.6836 75.1893 74.0356 75.552C74.3876 75.904 74.8729 76.08 75.4916 76.08C76.1849 76.08 76.7449 75.8667 77.1716 75.44C77.5983 75.0027 77.8116 74.336 77.8116 73.44V69.2ZM82.8748 70.544C83.3335 69.552 84.1655 69.056 85.3708 69.056V70.512C84.6882 70.48 84.1015 70.6613 83.6108 71.056C83.1202 71.4507 82.8748 72.0853 82.8748 72.96V77.2H81.4828V69.2H82.8748V70.544ZM92.4448 70.544C92.9035 69.552 93.7355 69.056 94.9408 69.056V70.512C94.2582 70.48 93.6715 70.6613 93.1808 71.056C92.6902 71.4507 92.4448 72.0853 92.4448 72.96V77.2H91.0528V69.2H92.4448V70.544ZM97.0013 73.84C97.14 74.5547 97.4653 75.1093 97.9773 75.504C98.5 75.8987 99.14 76.096 99.8973 76.096C100.953 76.096 101.721 75.7067 102.201 74.928L103.385 75.6C102.607 76.8053 101.433 77.408 99.8653 77.408C98.596 77.408 97.5613 77.0133 96.7613 76.224C95.972 75.424 95.5773 74.416 95.5773 73.2C95.5773 71.9947 95.9667 70.992 96.7453 70.192C97.524 69.392 98.532 68.992 99.7693 68.992C100.943 68.992 101.897 69.408 102.633 70.24C103.38 71.0613 103.753 72.0533 103.753 73.216C103.753 73.4187 103.737 73.6267 103.705 73.84H97.0013ZM99.7693 70.304C99.0227 70.304 98.404 70.5173 97.9133 70.944C97.4227 71.36 97.1187 71.92 97.0013 72.624H102.345C102.228 71.8667 101.929 71.2907 101.449 70.896C100.969 70.5013 100.409 70.304 99.7693 70.304ZM110.801 69.2H112.305L109.105 77.2H107.473L104.273 69.2H105.777L108.289 75.712L110.801 69.2ZM114.346 67.744C114.08 67.744 113.856 67.6533 113.674 67.472C113.493 67.2907 113.402 67.072 113.402 66.816C113.402 66.56 113.493 66.3413 113.674 66.16C113.856 65.968 114.08 65.872 114.346 65.872C114.602 65.872 114.821 65.968 115.002 66.16C115.184 66.3413 115.274 66.56 115.274 66.816C115.274 67.072 115.184 67.2907 115.002 67.472C114.821 67.6533 114.602 67.744 114.346 67.744ZM113.642 77.2V69.2H115.034V77.2H113.642ZM118.294 73.84C118.433 74.5547 118.758 75.1093 119.27 75.504C119.793 75.8987 120.433 76.096 121.19 76.096C122.246 76.096 123.014 75.7067 123.494 74.928L124.678 75.6C123.899 76.8053 122.726 77.408 121.158 77.408C119.889 77.408 118.854 77.0133 118.054 76.224C117.265 75.424 116.87 74.416 116.87 73.2C116.87 71.9947 117.259 70.992 118.038 70.192C118.817 69.392 119.825 68.992 121.062 68.992C122.235 68.992 123.19 69.408 123.926 70.24C124.673 71.0613 125.046 72.0533 125.046 73.216C125.046 73.4187 125.03 73.6267 124.998 73.84H118.294ZM121.062 70.304C120.315 70.304 119.697 70.5173 119.206 70.944C118.715 71.36 118.411 71.92 118.294 72.624H123.638C123.521 71.8667 123.222 71.2907 122.742 70.896C122.262 70.5013 121.702 70.304 121.062 70.304ZM135.917 69.2H137.373L134.893 77.2H133.469L131.597 71.28L129.725 77.2H128.301L125.821 69.2H127.277L129.037 75.28L130.925 69.2H132.269L134.157 75.296L135.917 69.2ZM139.666 71.36C139.666 71.6693 139.821 71.92 140.13 72.112C140.439 72.2933 140.813 72.4427 141.25 72.56C141.687 72.6667 142.125 72.7947 142.562 72.944C142.999 73.0827 143.373 73.328 143.682 73.68C143.991 74.0213 144.146 74.464 144.146 75.008C144.146 75.7333 143.863 76.3147 143.298 76.752C142.743 77.1893 142.029 77.408 141.154 77.408C140.375 77.408 139.709 77.2373 139.154 76.896C138.599 76.5547 138.205 76.1013 137.97 75.536L139.17 74.848C139.298 75.232 139.538 75.536 139.89 75.76C140.242 75.984 140.663 76.096 141.154 76.096C141.613 76.096 141.991 76.0107 142.29 75.84C142.589 75.6587 142.738 75.3813 142.738 75.008C142.738 74.6987 142.583 74.4533 142.274 74.272C141.965 74.08 141.591 73.9307 141.154 73.824C140.717 73.7067 140.279 73.5733 139.842 73.424C139.405 73.2747 139.031 73.0293 138.722 72.688C138.413 72.3467 138.258 71.9093 138.258 71.376C138.258 70.6827 138.525 70.112 139.058 69.664C139.602 69.216 140.279 68.992 141.09 68.992C141.741 68.992 142.317 69.1413 142.818 69.44C143.33 69.728 143.714 70.1333 143.97 70.656L142.802 71.312C142.514 70.6293 141.943 70.288 141.09 70.288C140.695 70.288 140.359 70.384 140.082 70.576C139.805 70.7573 139.666 71.0187 139.666 71.36Z" fill="#5A6179"/>
<defs>
<linearGradient id="paint0_linear_3797_25628" x1="116.805" y1="21.528" x2="116.76" y2="21.6552" gradientUnits="userSpaceOnUse">
<stop stop-color="#FFC200" stop-opacity="0"/>
<stop offset="0.203" stop-color="#FFBB00" stop-opacity="0.203"/>
<stop offset="0.499" stop-color="#FFA700" stop-opacity="0.499"/>
<stop offset="0.852" stop-color="#FF8800" stop-opacity="0.852"/>
<stop offset="1" stop-color="#FF7800"/>
</linearGradient>
<linearGradient id="paint1_linear_3797_25628" x1="116.818" y1="21.646" x2="116.722" y2="21.6867" gradientUnits="userSpaceOnUse">
<stop stop-color="#FFC200" stop-opacity="0"/>
<stop offset="0.203" stop-color="#FFBB00" stop-opacity="0.203"/>
<stop offset="0.499" stop-color="#FFA700" stop-opacity="0.499"/>
<stop offset="0.852" stop-color="#FF8800" stop-opacity="0.852"/>
<stop offset="1" stop-color="#FF7800"/>
</linearGradient>
<linearGradient id="paint2_linear_3797_25628" x1="116.94" y1="22.9968" x2="116.88" y2="23.0224" gradientUnits="userSpaceOnUse">
<stop stop-color="#FFC200" stop-opacity="0"/>
<stop offset="0.203" stop-color="#FFBB00" stop-opacity="0.203"/>
<stop offset="0.499" stop-color="#FFA700" stop-opacity="0.499"/>
<stop offset="0.852" stop-color="#FF8800" stop-opacity="0.852"/>
<stop offset="1" stop-color="#FF7800"/>
</linearGradient>
</defs>
</svg>
