<svg width="50" height="50" viewBox="0 0 50 50" fill="none" xmlns="http://www.w3.org/2000/svg">
<path d="M25.0007 49.9983C11.588 50.1586 -0.116072 39.0424 0.00086886 24.6872C0.109541 11.1162 11.3146 0.0354829 25.068 0C28.3466 0.00442659 31.5922 0.65541 34.6194 1.91578C37.6467 3.17615 40.3964 5.02121 42.7115 7.34564C45.0267 9.67008 46.862 12.4284 48.1125 15.463C49.3631 18.4976 50.0044 21.7491 50 25.032C49.9956 28.3148 49.3454 31.5646 48.0867 34.5958C46.828 37.6271 44.9853 40.3804 42.6639 42.6985C40.3426 45.0167 37.5879 46.8543 34.5572 48.1065C31.5266 49.3587 28.2792 50.0009 25.0007 49.9965V49.9983ZM32.0367 18.7142H33.1493C35.5348 18.7142 37.9197 18.719 40.3045 18.7095C40.6363 18.7493 40.9727 18.6984 41.2779 18.5623C41.4134 18.4625 41.5257 18.3345 41.6072 18.1873C41.6888 18.04 41.7376 17.8768 41.7504 17.7089C41.7427 17.4641 41.4084 17.1837 41.1556 17.0128C40.9956 16.9058 40.7209 16.9537 40.4983 16.9537C37.4956 16.9537 34.4934 16.9537 31.4915 16.9537C30.3693 16.9567 30.0032 17.2725 29.9985 18.3914C29.9796 22.792 29.9796 27.1931 29.9985 31.5945C30.0032 32.7856 30.39 33.1321 31.5931 33.1362C34.5682 33.1441 37.5427 33.1441 40.5166 33.1362C40.7405 33.1399 40.9642 33.1185 41.1834 33.0724C41.3963 33.0483 41.5922 32.9442 41.7315 32.7811C41.8707 32.6179 41.9429 32.408 41.9335 32.1936C41.9323 31.9933 41.857 31.8006 41.722 31.6527C41.587 31.5049 41.402 31.4125 41.2029 31.3934C40.8993 31.3403 40.5914 31.3167 40.2833 31.3231C37.8712 31.3183 35.4568 31.3231 33.0448 31.3148C32.7217 31.3148 32.4005 31.2521 32.0615 31.2172V25.7972H33.0525C35.1578 25.7972 37.2628 25.7972 39.3673 25.7972C39.5911 25.7972 39.8628 25.8646 40.0294 25.7635C40.3111 25.5908 40.6897 25.3312 40.7245 25.0686C40.7115 24.8993 40.6619 24.7349 40.5791 24.5867C40.4963 24.4385 40.3822 24.3102 40.2449 24.2105C39.9701 24.0767 39.6625 24.0249 39.359 24.0615C37.2553 24.0503 35.1498 24.0615 33.046 24.052C32.723 24.052 32.3963 24.0006 32.0343 23.9687L32.0367 18.7142ZM16.6029 31.3183V25.8404C16.9572 25.8244 17.2584 25.7972 17.5591 25.7972C19.6919 25.7941 21.824 25.7931 23.9553 25.7942C24.1799 25.8008 24.4047 25.7945 24.6286 25.7753C24.8282 25.7655 25.0174 25.6829 25.1604 25.5432C25.3034 25.4034 25.3906 25.2161 25.4053 25.0166C25.4287 24.8175 25.3754 24.617 25.2564 24.4558C25.1373 24.2947 24.9614 24.185 24.7645 24.149C24.465 24.0785 24.1576 24.0478 23.8502 24.058C21.7754 24.0497 19.6982 24.058 17.6216 24.0515C17.2956 24.0515 16.972 24.0112 16.6052 23.9876V18.7148H17.6488C20.1176 18.7148 22.5865 18.7148 25.0556 18.7148C25.951 18.7148 26.4318 18.3961 26.4436 17.8313C26.453 17.2565 25.9959 16.9573 25.0734 16.9555C22.1286 16.9523 19.1828 16.9523 16.2361 16.9555C14.9409 16.9555 14.6361 17.247 14.6344 18.5226C14.6281 22.8385 14.6281 27.1556 14.6344 31.4739C14.6344 32.782 14.9763 33.1339 16.2745 33.1386C19.2192 33.1481 22.165 33.1481 25.1117 33.1386C25.3607 33.1782 25.6157 33.1483 25.8488 33.0523C26.1365 32.8429 26.5186 32.5094 26.5186 32.2279C26.5186 31.9464 26.1441 31.591 25.8488 31.41C25.5581 31.308 25.2468 31.279 24.9422 31.3254C22.5298 31.3207 20.117 31.3197 17.7038 31.3225L16.6029 31.3183ZM10.0802 25.0225C10.0802 22.8344 10.0792 20.6463 10.0773 18.4582C10.0773 18.1796 10.1316 17.8355 9.99399 17.6368C9.78992 17.2937 9.47852 17.0276 9.10807 16.8798C8.66335 16.7692 8.33084 17.1453 8.20327 17.5859C8.12969 17.8557 8.09308 18.1342 8.09455 18.4138C8.08825 22.8176 8.08825 27.2209 8.09455 31.6235C8.0593 31.9304 8.11092 32.241 8.24343 32.52C8.34143 32.6747 8.46946 32.8081 8.61991 32.9123C8.77037 33.0166 8.94013 33.0895 9.11925 33.1268C9.29689 33.0848 9.46374 33.0058 9.60885 32.8949C9.75396 32.784 9.8741 32.6438 9.96147 32.4834C10.0785 32.1692 10.1171 31.8312 10.0737 31.4987C10.0838 29.3408 10.0802 27.184 10.0802 25.0219V25.0225Z" fill="#00AEEF"/>
</svg>
