<svg width="175" height="29" viewBox="0 0 175 29" fill="none" xmlns="http://www.w3.org/2000/svg">
<g clip-path="url(#clip0_3773_16263)">
<path d="M45.2623 21.2929L40.8204 15.5749C43.6723 14.9072 45.6663 13.0454 45.6663 9.95954V9.90683C45.6663 8.35897 45.1003 6.98189 44.1442 6.02487C42.9225 4.80315 41.0093 4.07214 38.6223 4.07214H31.5755C30.8832 4.07214 30.2866 4.66275 30.2866 5.38777V22.1986C30.2866 22.9238 30.8832 23.5144 31.5755 23.5144C32.2978 23.5144 32.8902 22.9222 32.8902 22.1986V16.0638H37.9385L43.1655 22.8543C43.4525 23.2371 43.8401 23.5144 44.3506 23.5144C45.0098 23.5144 45.6663 22.9178 45.6663 22.2244C45.6663 21.8727 45.5164 21.5794 45.2623 21.2929ZM43.0357 9.98739L43.0359 10.041H43.0357C43.0357 12.33 41.1044 13.6749 38.4333 13.6749H32.8902V6.51466H38.4602C41.3313 6.51466 43.0357 7.80197 43.0357 9.98739Z" fill="black"/>
<path d="M49.4614 22.0645C49.4614 22.7886 50.058 23.3795 50.7503 23.3795H62.5848C63.2559 23.3795 63.7922 22.8422 63.7922 22.1711C63.7922 21.5008 63.2562 20.9636 62.5848 20.9636H52.0653V14.8527H61.2401C61.9115 14.8527 62.4485 14.3165 62.4485 13.6453C62.4485 13.0075 61.9115 12.4369 61.2401 12.4369H52.0653V6.489H62.4506C63.1206 6.489 63.6589 5.9518 63.6589 5.28063C63.6589 4.60947 63.1206 4.07227 62.4506 4.07227H50.7503C50.0582 4.07227 49.4614 4.66287 49.4614 5.38812V22.0645Z" fill="black"/>
<path d="M74.7392 23.595L74.8803 23.5946C75.5848 23.5824 76.0237 23.1855 76.3022 22.5653L83.5957 5.71853C83.6606 5.5565 83.6935 5.39446 83.6935 5.19997C83.6935 4.53732 83.1333 3.93774 82.4046 3.93774C81.8271 3.93774 81.3668 4.37368 81.1412 4.82273C81.1387 4.82779 81.1364 4.83286 81.1341 4.83815L74.8207 19.9612L68.5321 4.89178C68.3079 4.34629 67.8508 3.93774 67.2089 3.93774C66.4825 3.93774 65.8921 4.56771 65.8921 5.22575C65.8921 5.45568 65.9271 5.6191 66.0244 5.81474L73.2811 22.5602C73.534 23.1908 74.013 23.595 74.7392 23.595Z" fill="black"/>
<path d="M87.1382 5.25331V22.1983C87.1382 22.9236 87.7348 23.5142 88.4271 23.5142C89.1494 23.5142 89.7418 22.9219 89.7418 22.1983V5.25331C89.7418 4.52967 89.1494 3.93768 88.4271 3.93768C87.7348 3.93768 87.1382 4.52806 87.1382 5.25331Z" fill="black"/>
<path d="M107.529 4.07279L107.497 4.07233H95.7963C95.1051 4.07233 94.5083 4.66293 94.5083 5.38818V22.0646C94.5083 22.7887 95.1049 23.3795 95.7963 23.3795C95.7961 23.3795 107.631 23.3795 107.631 23.3795C108.302 23.3795 108.839 22.8423 108.839 22.1711C108.839 21.5009 108.302 20.9637 107.631 20.9637H97.1119V14.8528H106.286C106.958 14.8528 107.494 14.3165 107.494 13.6454C107.494 13.0076 106.958 12.437 106.286 12.437H97.1119V6.48906H107.497C108.167 6.48906 108.706 5.95186 108.706 5.28069C108.706 4.62012 108.184 4.08913 107.529 4.07279Z" fill="black"/>
<path d="M130.593 23.6212H130.814C131.442 23.6079 131.893 23.1779 132.114 22.5459C132.113 22.548 138.139 5.81887 138.139 5.81887C138.139 5.81656 138.14 5.81449 138.141 5.81219C138.201 5.62806 138.287 5.41055 138.287 5.22642C138.287 4.567 137.663 3.93842 136.971 3.93842C136.351 3.93842 135.918 4.34857 135.721 4.93549C135.722 4.93296 130.737 19.2711 130.737 19.2711L126.036 4.93595C125.842 4.35041 125.41 3.93842 124.761 3.93842V3.94049L124.625 3.93842C123.943 3.93842 123.544 4.35041 123.349 4.93595L118.648 19.2706L113.69 4.98567C113.498 4.40956 113.005 3.93842 112.361 3.93842C111.639 3.93842 111.019 4.564 111.019 5.25335C111.019 5.44047 111.076 5.62737 111.138 5.81334L117.164 22.5464C117.386 23.2088 117.837 23.6088 118.464 23.6212H118.685C119.311 23.6079 119.763 23.1777 119.983 22.5454L124.626 8.74703L129.295 22.5459C129.516 23.1779 129.968 23.6079 130.593 23.6212Z" fill="black"/>
<path d="M151.872 18.2444V18.2981C151.872 20.0356 150.284 21.2596 147.917 21.2596C145.59 21.2596 143.864 20.5546 142.138 19.0931L142.134 19.0887C141.963 18.922 141.662 18.7842 141.327 18.7842C140.632 18.7842 140.064 19.3446 140.064 20.0731C140.064 20.5049 140.267 20.8695 140.564 21.0732C142.705 22.7716 145.037 23.6485 147.836 23.6485C151.725 23.6485 154.503 21.4407 154.503 18.0833V18.0285C154.503 15.0456 152.531 13.4181 148.182 12.4698C148.182 12.4698 148.182 12.4696 148.181 12.4696C144.231 11.6226 143.261 10.7394 143.261 9.04542V8.99179C143.261 7.4101 144.744 6.19229 147.028 6.19229C148.726 6.19229 150.215 6.66413 151.756 7.78711C151.757 7.78757 151.757 7.7878 151.758 7.78826C151.987 7.95306 152.218 8.02118 152.516 8.02118C153.212 8.02118 153.777 7.45774 153.777 6.75919C153.777 6.26779 153.487 5.90482 153.224 5.7071C153.223 5.70618 153.221 5.70503 153.22 5.70411C151.458 4.43797 149.615 3.80341 147.082 3.80341C143.355 3.80341 140.656 6.09769 140.656 9.18053L140.896 9.42036C140.895 9.42036 140.656 9.18214 140.656 9.18214V9.23209L140.896 9.47307L140.656 9.23347C140.656 12.4371 142.682 13.9272 147.166 14.9015C147.167 14.9015 147.167 14.9017 147.168 14.9017C150.931 15.696 151.872 16.5801 151.872 18.2444Z" fill="black"/>
<path d="M157.467 20.8681L157.444 20.8679C156.938 20.8679 156.578 21.2302 156.578 21.7186V22.0197C156.578 22.5074 156.939 22.8858 157.444 22.8858C157.931 22.8858 158.294 22.5083 158.294 22.0197C158.294 22.0993 158.23 22.1635 158.151 22.1635C158.151 22.1635 158.294 22.1474 158.294 22.013V21.7186C158.294 21.2369 157.943 20.8792 157.467 20.8681ZM156.734 22.1614C156.726 22.1631 156.721 22.1635 156.721 22.1635C156.726 22.1635 156.73 22.1635 156.735 22.1631L156.734 22.1614Z" fill="black"/>
<path d="M160.536 15.4007V22.1551C160.536 22.5671 160.855 22.8859 161.265 22.8859C161.68 22.8859 161.982 22.568 161.982 22.1551V15.4007C161.982 14.9875 161.663 14.6699 161.251 14.6699C160.857 14.6699 160.536 15.0069 160.536 15.4007ZM160.43 12.6474C160.43 13.0891 160.792 13.4079 161.251 13.4079C161.728 13.4079 162.086 13.0882 162.086 12.6474V12.4527C162.086 11.9931 161.728 11.6911 161.251 11.6911C160.792 11.6911 160.43 11.9922 160.43 12.4527L160.43 12.6474Z" fill="black"/>
<path fill-rule="evenodd" clip-rule="evenodd" d="M172.302 18.7888L172.302 18.7561C172.302 16.4807 170.526 14.5795 168.112 14.5795C165.682 14.5795 163.906 16.512 163.906 18.7858L163.935 18.8157L163.906 18.7867V18.8157C163.906 21.0902 165.667 22.9911 168.081 22.9911C170.511 22.9911 172.301 21.0612 172.302 18.7888ZM170.826 18.8157V18.7858C170.826 17.1972 169.642 15.8896 168.081 15.8896C166.479 15.8896 165.382 17.1967 165.382 18.7561V18.7858C165.382 20.3742 166.552 21.6649 168.112 21.6649C169.713 21.6649 170.826 20.3749 170.826 18.8157Z" fill="black"/>
<path fill-rule="evenodd" clip-rule="evenodd" d="M22.456 5.56012L21.2997 6.14014C23.5539 7.96051 24.656 10.3119 24.8608 13.1572C24.6896 18.6492 22.0984 22.179 17.6472 23.6928C12.5046 25.2422 9.24594 23.9885 6.09268 20.7757L5.89404 22.0107L7.17606 23.3466C11.6355 27.9939 19.0291 28.1465 23.6764 23.687C28.3237 19.2273 28.4762 11.834 24.0166 7.18647L22.456 5.56012Z" fill="#FEEF7C"/>
<path fill-rule="evenodd" clip-rule="evenodd" d="M5.25952 21.3225L6.03426 20.6458C2.8154 16.0844 2.68052 9.40642 7.08566 5.72999C10.351 3.00483 16.8302 1.59231 22.0137 6.15625L22.4006 5.47565L21.1375 4.15911C16.6778 -0.488158 9.28442 -0.640758 4.63693 3.81892C-0.0103416 8.27838 -0.162711 15.672 4.29674 20.3192L5.25952 21.3225Z" fill="#5CD3CB"/>
<path d="M2.47607 13.7861C2.47607 20.2431 7.71141 25.4785 14.1685 25.4785C20.6267 25.4785 25.8618 20.2431 25.8618 13.7861C25.8618 7.32787 20.6267 2.09253 14.1685 2.09253C7.71141 2.09253 2.47607 7.32787 2.47607 13.7861ZM10.6145 15.9008C10.7374 15.5119 10.6007 15.0879 10.2738 14.8437C9.40842 14.1974 7.70221 12.9232 6.55575 12.067C6.39027 11.9434 6.3226 11.7277 6.38773 11.5316C6.45287 11.3355 6.63608 11.2034 6.84277 11.2034H11.2863C11.6999 11.2034 12.0668 10.9382 12.1969 10.5458C12.5472 9.48774 13.2434 7.38495 13.7051 5.99107C13.7701 5.7952 13.953 5.66262 14.1595 5.66239C14.366 5.66216 14.5496 5.79405 14.615 5.98969C15.0815 7.38472 15.7861 9.49096 16.1398 10.5486C16.2708 10.9396 16.637 11.2034 17.0494 11.2034C18.1006 11.2034 20.1256 11.2034 21.5043 11.2034C21.7103 11.2034 21.8935 11.335 21.9589 11.5307C22.0242 11.7263 21.9575 11.9418 21.7927 12.0658C20.6497 12.9269 18.9426 14.2126 18.079 14.863C17.754 15.1077 17.6189 15.531 17.7416 15.9186C18.0755 16.9732 18.7453 19.0882 19.1978 20.5168C19.2609 20.7164 19.1872 20.9341 19.0158 21.0542C18.8443 21.1744 18.6148 21.1695 18.4486 21.042C17.3003 20.1605 15.6227 18.8727 14.7441 18.1986C14.3986 17.9334 13.9181 17.9341 13.5735 18.2006C12.7035 18.8732 11.0486 20.1529 9.90995 21.0333C9.74423 21.1615 9.5143 21.1672 9.34237 21.0471C9.17043 20.9272 9.09632 20.7094 9.15938 20.5097C9.61189 19.0769 10.2807 16.9582 10.6145 15.9008Z" fill="black"/>
</g>
<defs>
<clipPath id="clip0_3773_16263">
<rect width="173.775" height="27.85" fill="white" transform="translate(0.553223 0.174988)"/>
</clipPath>
</defs>
</svg>
